<svg xmlns="http://www.w3.org/2000/svg" version="1.1" xmlns:xlink="http://www.w3.org/1999/xlink" width="200" height="200"><svg xmlns="http://www.w3.org/2000/svg" version="1.1" xmlns:xlink="http://www.w3.org/1999/xlink" width="200" height="200"><svg xmlns="http://www.w3.org/2000/svg" version="1.1" xmlns:xlink="http://www.w3.org/1999/xlink" viewBox="0 0 200 200"><rect width="200" height="200" fill="url('#gradient')"></rect><defs><linearGradient id="gradient" gradientTransform="rotate(45 0.5 0.5)"><stop offset="0%" stop-color="#ffffff"></stop><stop offset="100%" stop-color="#ffffff"></stop></linearGradient></defs><g><g fill="#000000" transform="matrix(3.027098045656101,0,0,3.027098045656101,6.7495792974958135,121.22167651401519)" stroke="#000000" stroke-width="0.2"><path d="M1.07-14.22L5.58-14.22L8.75-4.33L11.91-14.22L16.43-14.22L16.43 0L12.99 0L12.99-3.32L13.32-10.12L9.88 0L7.62 0L4.17-10.13L4.50-3.32L4.50 0L1.07 0L1.07-14.22ZM23.56 0.20L23.56 0.20Q21.13 0.20 19.63-1.25Q18.13-2.71 18.13-5.03L18.13-5.03L18.13-5.30Q18.13-6.92 18.73-8.16Q19.33-9.40 20.48-10.08Q21.63-10.76 23.21-10.76L23.21-10.76Q25.44-10.76 26.73-9.38Q28.02-8.00 28.02-5.53L28.02-5.53L28.02-4.25L21.47-4.25Q21.65-3.36 22.25-2.85Q22.84-2.34 23.79-2.34L23.79-2.34Q25.35-2.34 26.23-3.44L26.23-3.44L27.73-1.66Q27.12-0.81 25.99-0.31Q24.86 0.20 23.56 0.20ZM23.19-8.22L23.19-8.22Q21.75-8.22 21.47-6.31L21.47-6.31L24.79-6.31L24.79-6.56Q24.81-7.35 24.39-7.79Q23.97-8.22 23.19-8.22ZM29.28-10.57L32.36-10.57L32.47-9.33Q33.56-10.76 35.49-10.76L35.49-10.76Q37.14-10.76 37.95-9.78Q38.77-8.79 38.80-6.81L38.80-6.81L38.80 0L35.50 0L35.50-6.67Q35.50-7.47 35.18-7.85Q34.85-8.22 34.00-8.22L34.00-8.22Q33.04-8.22 32.57-7.46L32.57-7.46L32.57 0L29.28 0L29.28-10.57ZM49.21-8.79L44.50-2.54L49.32-2.54L49.32 0L40.34 0L40.34-1.84L45.03-8.03L40.55-8.03L40.55-10.57L49.21-10.57L49.21-8.79ZM50.35-4.82L50.34-5.38Q50.34-6.96 50.96-8.20Q51.57-9.43 52.72-10.10Q53.88-10.76 55.43-10.76L55.43-10.76Q57.80-10.76 59.17-9.29Q60.54-7.82 60.54-5.29L60.54-5.29L60.54-5.18Q60.54-2.71 59.17-1.25Q57.79 0.20 55.45 0.20L55.45 0.20Q53.19 0.20 51.83-1.16Q50.46-2.51 50.35-4.82L50.35-4.82ZM53.64-5.77L53.63-5.18Q53.63-3.71 54.09-3.03Q54.55-2.34 55.45-2.34L55.45-2.34Q57.21-2.34 57.25-5.05L57.25-5.05L57.25-5.38Q57.25-8.22 55.43-8.22L55.43-8.22Q53.78-8.22 53.64-5.77L53.64-5.77Z"></path></g></g></svg></svg><style>@media (prefers-color-scheme: light) { :root { filter: none; } }
@media (prefers-color-scheme: dark) { :root { filter: none; } }
</style></svg>